<svg id="visual" viewBox="0 0 900 600" width="900" height="600" xmlns="http://www.w3.org/2000/svg" xmlns:xlink="http://www.w3.org/1999/xlink" version="1.1"><rect x="0" y="0" width="900" height="600" fill="#ffffff"></rect><defs><linearGradient id="grad1_0" x1="33.3%" y1="0%" x2="100%" y2="100%"><stop offset="20%" stop-color="#ffffff" stop-opacity="1"></stop><stop offset="80%" stop-color="#ffffff" stop-opacity="1"></stop></linearGradient></defs><defs><linearGradient id="grad2_0" x1="0%" y1="0%" x2="66.7%" y2="100%"><stop offset="20%" stop-color="#ffffff" stop-opacity="1"></stop><stop offset="80%" stop-color="#ffffff" stop-opacity="1"></stop></linearGradient></defs><g transform="translate(900, 0)"><path d="M0 351.5C-46.4 347.9 -92.7 344.2 -134.5 324.8C-176.4 305.3 -213.7 270.1 -230.5 230.5C-247.4 190.9 -243.8 147.1 -260.5 107.9C-277.3 68.8 -314.4 34.4 -351.5 0L0 0Z" fill="#ff2e2e"></path></g><g transform="translate(0, 600)"><path d="M0 -351.5C51.2 -352.3 102.4 -353.1 134.5 -324.8C166.6 -296.4 179.6 -239 201.5 -201.5C223.5 -164.1 254.4 -146.6 280.9 -116.3C307.4 -86.1 329.4 -43 351.5 0L0 0Z" fill="#ff2e2e"></path></g></svg>