<svg id="visual" viewBox="0 0 900 600" width="900" height="600" xmlns="http://www.w3.org/2000/svg" xmlns:xlink="http://www.w3.org/1999/xlink" version="1.1"><rect x="0" y="0" width="900" height="600" fill="#ffffff"></rect><defs><linearGradient id="grad1_0" x1="33.3%" y1="100%" x2="100%" y2="0%"><stop offset="20%" stop-color="#ffffff" stop-opacity="1"></stop><stop offset="80%" stop-color="#ffffff" stop-opacity="1"></stop></linearGradient></defs><defs><linearGradient id="grad2_0" x1="0%" y1="100%" x2="66.7%" y2="0%"><stop offset="20%" stop-color="#ffffff" stop-opacity="1"></stop><stop offset="80%" stop-color="#ffffff" stop-opacity="1"></stop></linearGradient></defs><g transform="translate(900, 600)"><path d="M-237 0C-249.6 -21 -262.3 -42.1 -254.5 -58.1C-246.7 -74.1 -218.4 -85 -200.9 -96.8C-183.4 -108.5 -176.6 -121.2 -171.2 -136.5C-165.8 -151.9 -161.9 -170 -157.1 -197C-152.3 -224.1 -146.7 -260.1 -129.1 -268C-111.4 -275.9 -81.6 -255.5 -58.1 -254.5C-34.6 -253.4 -17.3 -271.7 0 -290L0 0Z" fill="#fd2a2a"></path></g><g transform="translate(0, 0)"><path d="M282 0C273.3 20.3 264.7 40.6 250.6 57.2C236.4 73.8 216.9 86.8 200.9 96.8C185 106.7 172.6 113.6 168.9 134.7C165.1 155.7 170 190.9 155.2 194.7C140.5 198.5 106.3 171 90.7 188.3C75.1 205.6 78.2 267.7 66.2 290C54.2 312.3 27.1 294.6 0 277L0 0Z" fill="#fd2a2a"></path></g></svg>